<?xml version="1.0" encoding="utf-8"?>
<!-- Generator: Adobe Illustrator 27.7.0, SVG Export Plug-In . SVG Version: 6.00 Build 0)  -->
<svg version="1.1" xmlns="http://www.w3.org/2000/svg" xmlns:xlink="http://www.w3.org/1999/xlink" x="0px" y="0px"
	 viewBox="0 0 188.9 189.18" style="enable-background:new 0 0 188.9 189.18;" xml:space="preserve">
<style type="text/css">
	.st0{fill:#FFFFFF;}
	.st1{fill:url(#SVGID_1_);}
	.st2{fill:#F35F4B;}
	.st3{display:none;}
	.st4{display:inline;fill:#FFFFFF;}
	.st5{display:inline;fill:url(#SVGID_00000132072031632199004430000003839095208753257615_);}
	.st6{display:inline;fill:#F35F4B;}
	.st7{display:inline;fill:url(#SVGID_00000036930085227920608230000014611363485096547465_);}
	.st8{display:inline;fill:url(#SVGID_00000130639650793000654500000008640139402616748953_);}
</style>
<g id="Layer_1">
	<path class="st0" d="M122.27,81.62c-0.51-0.41-1.24-0.47-1.82-0.17c-0.6,0.3-0.97,0.9-0.97,1.57v2.9h-0.84
		c-5.66,0-11.14,1.46-16.01,4.19V70.96h2.9c0.67,0,1.27-0.39,1.57-0.97c0.3-0.6,0.24-1.31-0.17-1.83L95.66,53.33
		c-0.32-0.43-0.84-0.69-1.39-0.69c-0.56,0-1.05,0.26-1.39,0.69L81.61,68.16c-0.41,0.52-0.47,1.25-0.17,1.83
		c0.3,0.6,0.9,0.97,1.57,0.97h2.9v19.15c-4.74-2.67-10.19-4.21-16.01-4.21h-0.84v-2.9c0-0.67-0.39-1.27-0.97-1.57
		c-0.6-0.3-1.31-0.21-1.82,0.17l-14.8,11.28c-0.43,0.32-0.69,0.84-0.69,1.4c0,0.54,0.26,1.05,0.69,1.4l14.8,11.28
		c0.51,0.41,1.24,0.47,1.82,0.17c0.6-0.3,0.97-0.9,0.97-1.57v-2.9h2.08c8.13,0,14.76,6.64,14.76,14.79v16.74
		c0,0.97,0.77,1.74,1.74,1.74h13.28c0.97,0,1.74-0.77,1.74-1.74v-15.5v-1.25c0-8.15,6.63-14.79,14.76-14.79h2.08v2.9
		c0,0.67,0.39,1.27,0.97,1.57c0.6,0.3,1.31,0.21,1.82-0.17l14.8-11.28c0.43-0.32,0.69-0.84,0.69-1.4c0-0.54-0.26-1.05-0.69-1.4
		L122.27,81.62z M87.6,67.47h-1.12l7.77-10.21l7.77,10.21h-1.12c-0.97,0-1.74,0.77-1.74,1.74v34.88c-2.32-4.62-5.69-8.62-9.8-11.69
		V69.22C89.36,68.25,88.56,67.47,87.6,67.47z M99.14,132.47h-9.81v-15c0-10.08-8.17-18.27-18.24-18.27h-3.82
		c-0.97,0-1.74,0.77-1.74,1.74v1.12L55.35,94.3l10.19-7.78v1.12c0,0.97,0.77,1.74,1.74,1.74h2.57c16.16,0,29.29,13.15,29.29,29.34
		V132.47z M122.95,102.08v-1.12c0-0.97-0.77-1.74-1.74-1.74h-3.82c-6.07,0-11.44,2.99-14.76,7.59V94.19
		c4.76-3.12,10.28-4.79,16.01-4.79h2.57c0.97,0,1.74-0.77,1.74-1.74v-1.12l10.19,7.76L122.95,102.08z"/>
	
		<linearGradient id="SVGID_1_" gradientUnits="userSpaceOnUse" x1="-139.7207" y1="334.8918" x2="-139.7207" y2="146.8918" gradientTransform="matrix(1 0 0 -1 234 335.1776)">
		<stop  offset="0" style="stop-color:#F35F4B"/>
		<stop  offset="1" style="stop-color:#F89D5C"/>
	</linearGradient>
	<circle class="st1" cx="94.28" cy="94.29" r="94"/>
	<path class="st2" d="M94.28,9.29L94.28,9.29c46.94,0,85,38.06,85,85l0,0c0,46.94-38.06,85-85,85l0,0c-46.94,0-85-38.06-85-85l0,0
		C9.28,47.34,47.34,9.29,94.28,9.29z"/>
	<path class="st0" d="M121.77,76.26c-0.51-0.41-1.24-0.47-1.82-0.17c-0.6,0.3-0.97,0.9-0.97,1.57v2.9h-0.84
		c-5.66,0-11.14,1.46-16,4.19V65.6h2.9c0.67,0,1.27-0.39,1.57-0.97c0.3-0.6,0.24-1.31-0.17-1.83L95.16,47.97
		c-0.32-0.43-0.84-0.69-1.39-0.69c-0.56,0-1.05,0.26-1.39,0.69L81.11,62.8c-0.41,0.52-0.47,1.25-0.17,1.83
		c0.3,0.6,0.9,0.97,1.57,0.97h2.9v19.15c-4.74-2.67-10.19-4.21-16.01-4.21h-0.84v-2.9c0-0.67-0.39-1.27-0.97-1.57
		c-0.6-0.3-1.31-0.21-1.82,0.17l-14.8,11.28c-0.43,0.32-0.69,0.84-0.69,1.4c0,0.54,0.26,1.05,0.69,1.4l14.8,11.28
		c0.51,0.41,1.24,0.47,1.82,0.17c0.6-0.3,0.97-0.9,0.97-1.57v-2.9h2.08c8.13,0,14.76,6.64,14.76,14.79v16.74
		c0,0.97,0.77,1.74,1.74,1.74h13.28c0.97,0,1.74-0.77,1.74-1.74v-15.5v-1.25c0-8.15,6.63-14.79,14.76-14.79H119v2.9
		c0,0.67,0.39,1.27,0.97,1.57c0.6,0.3,1.31,0.21,1.82-0.17l14.8-11.28c0.43-0.32,0.69-0.84,0.69-1.4c0-0.54-0.26-1.05-0.69-1.4
		L121.77,76.26z M87.1,62.12h-1.12l7.77-10.21l7.77,10.21h-1.12c-0.97,0-1.74,0.77-1.74,1.74v34.88c-2.32-4.62-5.69-8.62-9.8-11.69
		V63.86C88.86,62.89,88.06,62.12,87.1,62.12z M98.64,127.11h-9.8v-15c0-10.08-8.17-18.27-18.24-18.27h-3.82
		c-0.97,0-1.74,0.77-1.74,1.74v1.12l-10.19-7.76l10.19-7.78v1.12c0,0.97,0.77,1.74,1.74,1.74h2.57c16.16,0,29.29,13.15,29.29,29.34
		V127.11z M122.45,96.72V95.6c0-0.97-0.77-1.74-1.74-1.74h-3.82c-6.07,0-11.44,2.99-14.76,7.59V88.83c4.76-3.12,10.28-4.79,16-4.79
		h2.57c0.97,0,1.74-0.77,1.74-1.74v-1.12l10.19,7.76L122.45,96.72z"/>
</g>
<g id="Layer_2" class="st3">
	<path class="st4" d="M57.79,72.45l2.04,2.04l5.68-6.98c0.9-1.1,2.51-1.27,3.62-0.37c1.1,0.9,1.27,2.51,0.37,3.62l-7.48,9.19
		c-0.96,1.18-2.73,1.27-3.81,0.2l-4.05-4.05c-1-1-1-2.63,0-3.63C55.16,71.45,56.79,71.45,57.79,72.45z M57.79,93.01l2.04,2.04
		l5.68-6.98c0.9-1.1,2.51-1.27,3.62-0.37c1.1,0.9,1.27,2.51,0.37,3.62l-7.48,9.19c-0.96,1.18-2.73,1.27-3.81,0.2l-4.05-4.05
		c-1-1-1-2.63,0-3.63C55.16,92.01,56.79,92.01,57.79,93.01z M57.79,113.57l2.04,2.04l5.68-6.98c0.9-1.1,2.51-1.27,3.62-0.37
		c1.1,0.9,1.27,2.51,0.37,3.62l-7.48,9.19c-0.96,1.18-2.73,1.27-3.81,0.2l-4.05-4.05c-1-1-1-2.63,0-3.63
		C55.16,112.57,56.79,112.57,57.79,113.57z M81.44,98.25c-1.42,0-2.57-1.15-2.57-2.57c0-1.42,1.15-2.57,2.57-2.57h51.4
		c1.42,0,2.57,1.15,2.57,2.57c0,1.42-1.15,2.57-2.57,2.57H81.44z M81.44,118.81c-1.42,0-2.57-1.15-2.57-2.57
		c0-1.42,1.15-2.57,2.57-2.57h51.4c1.42,0,2.57,1.15,2.57,2.57c0,1.42-1.15,2.57-2.57,2.57H81.44z M81.44,77.7
		c-1.42,0-2.57-1.15-2.57-2.57c0-1.42,1.15-2.57,2.57-2.57h51.4c1.42,0,2.57,1.15,2.57,2.57c0,1.42-1.15,2.57-2.57,2.57H81.44z"/>
	<g>
		
			<linearGradient id="SVGID_00000084519369221701854550000004596842833358188701_" gradientUnits="userSpaceOnUse" x1="-139.7207" y1="334.8918" x2="-139.7207" y2="146.8918" gradientTransform="matrix(1 0 0 -1 234 335.1776)">
			<stop  offset="0" style="stop-color:#F35F4B"/>
			<stop  offset="1" style="stop-color:#F89D5C"/>
		</linearGradient>
		
			<circle style="display:inline;fill:url(#SVGID_00000084519369221701854550000004596842833358188701_);" cx="94.28" cy="94.29" r="94"/>
		<path class="st6" d="M94.28,9.29L94.28,9.29c46.94,0,85,38.06,85,85l0,0c0,46.94-38.06,85-85,85l0,0c-46.94,0-85-38.06-85-85l0,0
			C9.28,47.34,47.34,9.29,94.28,9.29z"/>
		<path class="st4" d="M57.67,72.18l2.04,2.04l5.68-6.98c0.9-1.1,2.51-1.27,3.62-0.37c1.1,0.9,1.27,2.51,0.37,3.62l-7.48,9.19
			c-0.96,1.18-2.73,1.27-3.81,0.2l-4.05-4.05c-1-1-1-2.63,0-3.63C55.04,71.17,56.66,71.17,57.67,72.18z M57.67,92.74l2.04,2.04
			l5.68-6.98c0.9-1.1,2.51-1.27,3.62-0.37c1.1,0.9,1.27,2.51,0.37,3.62l-7.48,9.19c-0.96,1.18-2.73,1.27-3.81,0.2l-4.05-4.05
			c-1-1-1-2.63,0-3.63C55.04,91.73,56.66,91.73,57.67,92.74z M57.67,113.29l2.04,2.04l5.68-6.98c0.9-1.1,2.51-1.27,3.62-0.37
			c1.1,0.9,1.27,2.51,0.37,3.61l-7.48,9.19c-0.96,1.18-2.73,1.27-3.81,0.19l-4.05-4.05c-1-1-1-2.63,0-3.63
			C55.04,112.29,56.66,112.29,57.67,113.29z M81.31,97.98c-1.42,0-2.57-1.15-2.57-2.57c0-1.42,1.15-2.57,2.57-2.57h51.4
			c1.42,0,2.57,1.15,2.57,2.57c0,1.42-1.15,2.57-2.57,2.57H81.31z M81.31,118.54c-1.42,0-2.57-1.15-2.57-2.57
			c0-1.42,1.15-2.57,2.57-2.57h51.4c1.42,0,2.57,1.15,2.57,2.57c0,1.42-1.15,2.57-2.57,2.57H81.31z M81.31,77.42
			c-1.42,0-2.57-1.15-2.57-2.57c0-1.42,1.15-2.57,2.57-2.57h51.4c1.42,0,2.57,1.15,2.57,2.57c0,1.42-1.15,2.57-2.57,2.57H81.31z"/>
	</g>
</g>
<g id="Layer_3" class="st3">
	<path class="st4" d="M132.47,75.61c-0.01-2.17-0.87-4.25-2.4-5.78c-1.53-1.54-3.61-2.4-5.78-2.41h-5.18v-2.55
		c0-4.5-3.74-8.21-8.24-8.21H59.98c-2.17,0.01-4.25,0.88-5.79,2.42c-1.54,1.54-2.4,3.62-2.41,5.79v37.47c0,4.5,3.7,8.11,8.2,8.11
		h4.29v2.63c0,4.5,3.74,8.13,8.23,8.13h27.13c1.64,3.23,4.14,5.93,7.23,7.82c3.09,1.89,6.64,2.88,10.26,2.87
		c10.84,0,19.66-8.81,19.66-19.65c0-4.64-1.7-8.9-4.31-12.27L132.47,75.61z M119.11,70.19h5.18c1.43,0.01,2.8,0.58,3.81,1.6
		c1.01,1.01,1.58,2.39,1.59,3.82v21.55c-3-2.51-6.69-4.07-10.59-4.46V70.19z M54.56,64.87c0.01-1.44,0.58-2.81,1.6-3.83
		c1.01-1.02,2.39-1.59,3.83-1.61h50.89c2.97,0,5.46,2.47,5.46,5.44v27.76c-0.35,0.01-0.64,0.03-0.94,0.06l-7.89-11.15
		c-0.78-1.1-1.85-1.95-3.08-2.48c-1.24-0.52-2.6-0.69-3.92-0.49c-0.94,0.14-1.84,0.47-2.65,0.96c-0.81,0.49-1.51,1.14-2.07,1.91
		l-9.92,13.54c-0.67,0.92-1.68,1.55-2.81,1.75c-1.13,0.2-2.29-0.05-3.24-0.69l-7.41-4.96c-1.18-0.79-2.56-1.22-3.98-1.22
		c-1.42-0.01-2.81,0.41-3.99,1.19c-0.01,0.01-0.04,0.01-0.05,0.02l-9.82,6.81V64.87z M72.51,118.44c-2.97,0-5.46-2.39-5.46-5.36
		v-2.63h30.49c-0.05,0.69-0.08,1.18-0.08,1.77c0,2.11,0.33,4.21,1,6.21H72.51z M97.99,107.68H59.98c-2.97,0-5.42-2.37-5.42-5.34
		v-1.08l11.39-7.91c0.73-0.48,1.58-0.73,2.46-0.72c0.87,0,1.72,0.27,2.45,0.75l7.42,4.96c1.54,1.04,3.43,1.44,5.27,1.12
		c1.83-0.32,3.47-1.34,4.57-2.85l9.92-13.54c0.42-0.57,0.96-1.03,1.59-1.34c0.63-0.32,1.32-0.48,2.03-0.47
		c0.7,0.01,1.4,0.18,2.02,0.51c0.62,0.33,1.16,0.8,1.57,1.37l7.1,10.04c-3.48,0.88-6.66,2.7-9.19,5.25
		C100.61,100.98,98.83,104.18,97.99,107.68z M133.99,112.26c0,3.34-0.99,6.6-2.84,9.38c-1.85,2.78-4.49,4.94-7.57,6.22
		s-6.48,1.61-9.75,0.96c-3.27-0.65-6.28-2.26-8.64-4.62c-2.36-2.36-3.97-5.37-4.62-8.64c-0.65-3.27-0.32-6.67,0.96-9.75
		s3.44-5.72,6.22-7.57c2.78-1.85,6.04-2.84,9.38-2.84c4.47,0.01,8.76,1.79,11.93,4.95C132.21,103.5,133.99,107.79,133.99,112.26
		L133.99,112.26z"/>
	<path class="st4" d="M78.42,83.79c1.72,0,3.39-0.51,4.82-1.46c1.43-0.95,2.54-2.31,3.2-3.89c0.66-1.59,0.83-3.33,0.49-5.01
		c-0.33-1.68-1.16-3.23-2.37-4.44c-1.21-1.21-2.76-2.04-4.44-2.38c-1.68-0.33-3.43-0.16-5.01,0.49s-2.94,1.77-3.89,3.2
		c-0.95,1.43-1.46,3.1-1.46,4.82c0,2.3,0.92,4.51,2.54,6.13C73.91,82.87,76.12,83.78,78.42,83.79z M78.42,69.21
		c1.17,0,2.31,0.35,3.28,0.99c0.97,0.65,1.73,1.57,2.17,2.65c0.45,1.08,0.56,2.26,0.34,3.41c-0.23,1.14-0.79,2.2-1.62,3.02
		c-0.83,0.83-1.88,1.39-3.02,1.62s-2.33,0.11-3.41-0.34c-1.08-0.45-2-1.2-2.65-2.17c-0.65-0.97-0.99-2.11-0.99-3.28
		c0-1.56,0.62-3.06,1.73-4.17C75.35,69.83,76.85,69.21,78.42,69.21z"/>
	<path class="st4" d="M122.33,109.92c0.9,0,1.79-0.28,2.53-0.8c0.74-0.52,1.3-1.26,1.61-2.11c0.31-0.85,0.34-1.78,0.1-2.65
		s-0.74-1.65-1.44-2.23s-1.56-0.92-2.46-0.99c-0.9-0.07-1.8,0.14-2.58,0.6c-0.78,0.46-1.39,1.15-1.76,1.98
		c-0.37,0.83-0.48,1.75-0.3,2.63l-5.8,2.78c-0.6-0.6-1.37-1.01-2.2-1.19c-0.83-0.17-1.7-0.1-2.49,0.21
		c-0.79,0.31-1.48,0.84-1.97,1.53c-0.5,0.69-0.78,1.51-0.82,2.36c-0.04,0.85,0.17,1.69,0.6,2.42c0.43,0.73,1.07,1.32,1.83,1.7
		c0.76,0.38,1.62,0.53,2.46,0.43c0.84-0.1,1.64-0.44,2.3-0.98l6.05,2.78c-0.14,1.03,0.1,2.09,0.66,2.96
		c0.57,0.88,1.42,1.53,2.42,1.83c1,0.3,2.07,0.24,3.03-0.18c0.96-0.42,1.73-1.16,2.19-2.1c0.46-0.94,0.57-2.01,0.31-3.02
		c-0.26-1.01-0.87-1.9-1.72-2.5c-0.85-0.6-1.89-0.88-2.93-0.79c-1.04,0.09-2.01,0.55-2.74,1.3l-5.8-2.66
		c0.13-0.53,0.15-1.08,0.07-1.63l5.92-2.84C120.2,109.52,121.24,109.92,122.33,109.92z M122.33,103.92c0.32,0,0.63,0.09,0.9,0.27
		c0.27,0.18,0.47,0.43,0.59,0.72c0.12,0.29,0.15,0.62,0.09,0.93c-0.06,0.31-0.22,0.6-0.44,0.83c-0.23,0.23-0.51,0.38-0.83,0.44
		c-0.31,0.06-0.64,0.03-0.93-0.09c-0.29-0.12-0.55-0.33-0.72-0.59c-0.18-0.27-0.27-0.58-0.27-0.9c0-0.43,0.17-0.84,0.47-1.14
		C121.49,104.09,121.9,103.92,122.33,103.92z M109.12,113.87c-0.32,0-0.63-0.09-0.9-0.27c-0.27-0.18-0.47-0.43-0.59-0.72
		c-0.12-0.29-0.15-0.62-0.09-0.93c0.06-0.31,0.22-0.6,0.44-0.83c0.23-0.23,0.51-0.38,0.83-0.44c0.31-0.06,0.64-0.03,0.93,0.09
		c0.29,0.12,0.55,0.33,0.72,0.59c0.18,0.27,0.27,0.58,0.27,0.9c0,0.43-0.17,0.84-0.47,1.14
		C109.96,113.7,109.55,113.87,109.12,113.87z M122.33,117.38c0.32,0,0.63,0.09,0.9,0.27s0.47,0.43,0.59,0.72
		c0.12,0.29,0.15,0.62,0.09,0.93c-0.06,0.31-0.22,0.6-0.44,0.83s-0.51,0.38-0.83,0.44c-0.31,0.06-0.64,0.03-0.93-0.09
		c-0.29-0.12-0.55-0.33-0.72-0.59c-0.18-0.27-0.27-0.58-0.27-0.9c0-0.43,0.17-0.84,0.47-1.14S121.9,117.38,122.33,117.38z"/>
	<g>
		
			<linearGradient id="SVGID_00000132071381759374789050000015438127566850862976_" gradientUnits="userSpaceOnUse" x1="-139.7207" y1="334.8918" x2="-139.7207" y2="146.8918" gradientTransform="matrix(1 0 0 -1 234 335.1776)">
			<stop  offset="0" style="stop-color:#F35F4B"/>
			<stop  offset="1" style="stop-color:#F89D5C"/>
		</linearGradient>
		
			<circle style="display:inline;fill:url(#SVGID_00000132071381759374789050000015438127566850862976_);" cx="94.28" cy="94.29" r="94"/>
		<path class="st6" d="M94.28,9.29L94.28,9.29c46.94,0,85,38.06,85,85l0,0c0,46.94-38.06,85-85,85l0,0c-46.94,0-85-38.06-85-85l0,0
			C9.28,47.34,47.34,9.29,94.28,9.29z"/>
		<path class="st4" d="M131.97,80.72c-0.01-2.17-0.87-4.25-2.4-5.78c-1.53-1.54-3.61-2.4-5.78-2.41h-5.18v-2.55
			c0-4.5-3.74-8.21-8.24-8.21H59.48c-2.17,0.01-4.25,0.88-5.79,2.42c-1.54,1.54-2.4,3.62-2.41,5.79v37.47c0,4.5,3.7,8.11,8.2,8.11
			h4.29v2.63c0,4.5,3.74,8.13,8.23,8.13h27.13c1.64,3.23,4.14,5.93,7.23,7.82c3.09,1.89,6.64,2.88,10.25,2.87
			c10.84,0,19.66-8.81,19.66-19.65c0-4.64-1.7-8.9-4.31-12.27V80.72z M118.61,75.3h5.18c1.43,0.01,2.8,0.58,3.82,1.6
			c1.01,1.01,1.58,2.39,1.59,3.82v21.55c-3-2.51-6.69-4.07-10.59-4.46V75.3z M54.06,69.98c0.01-1.44,0.58-2.81,1.6-3.83
			c1.01-1.02,2.39-1.59,3.83-1.61h50.89c2.97,0,5.46,2.47,5.46,5.44v27.76c-0.35,0.01-0.64,0.03-0.94,0.06l-7.89-11.15
			c-0.78-1.1-1.85-1.95-3.08-2.48c-1.24-0.52-2.6-0.69-3.92-0.49c-0.94,0.14-1.84,0.47-2.65,0.96c-0.81,0.49-1.51,1.14-2.07,1.91
			l-9.92,13.54c-0.67,0.93-1.68,1.55-2.81,1.75c-1.13,0.2-2.29-0.05-3.24-0.68l-7.41-4.96c-1.18-0.79-2.56-1.22-3.98-1.22
			c-1.42-0.01-2.81,0.41-3.99,1.19c-0.01,0.01-0.04,0.01-0.05,0.02l-9.82,6.81V69.98z M72.01,123.54c-2.97,0-5.46-2.39-5.46-5.36
			v-2.63h30.49c-0.05,0.69-0.08,1.18-0.08,1.77c0,2.11,0.33,4.21,1,6.21H72.01z M97.49,112.78H59.48c-2.97,0-5.42-2.37-5.42-5.34
			v-1.08l11.39-7.91c0.73-0.48,1.58-0.73,2.46-0.72c0.87,0.01,1.72,0.27,2.45,0.75l7.42,4.96c1.54,1.04,3.43,1.44,5.27,1.11
			c1.83-0.32,3.47-1.34,4.57-2.85l9.92-13.54c0.42-0.57,0.96-1.03,1.59-1.34c0.63-0.32,1.32-0.48,2.03-0.47
			c0.7,0.01,1.4,0.18,2.02,0.51c0.62,0.33,1.16,0.8,1.57,1.37l7.1,10.04c-3.48,0.88-6.66,2.7-9.19,5.25
			C100.11,106.09,98.33,109.29,97.49,112.78z M133.49,117.37c0,3.34-0.99,6.6-2.84,9.38c-1.85,2.78-4.49,4.94-7.58,6.22
			c-3.08,1.28-6.48,1.61-9.75,0.96c-3.27-0.65-6.28-2.26-8.64-4.62c-2.36-2.36-3.97-5.37-4.62-8.64c-0.65-3.27-0.32-6.67,0.96-9.75
			c1.28-3.08,3.44-5.72,6.22-7.57c2.78-1.85,6.04-2.84,9.38-2.84c4.47,0.01,8.76,1.79,11.93,4.95
			C131.71,108.6,133.49,112.89,133.49,117.37L133.49,117.37z"/>
		<path class="st4" d="M77.92,88.89c1.72,0,3.39-0.51,4.82-1.46c1.43-0.95,2.54-2.31,3.2-3.89c0.66-1.59,0.83-3.33,0.49-5.01
			c-0.33-1.68-1.16-3.23-2.37-4.44c-1.21-1.21-2.76-2.04-4.44-2.38c-1.68-0.33-3.43-0.16-5.01,0.49s-2.94,1.77-3.89,3.2
			c-0.95,1.43-1.46,3.1-1.46,4.82c0,2.3,0.92,4.51,2.54,6.13C73.41,87.97,75.62,88.89,77.92,88.89z M77.92,74.31
			c1.17,0,2.31,0.35,3.28,0.99c0.97,0.65,1.73,1.57,2.17,2.65c0.45,1.08,0.56,2.26,0.34,3.41c-0.23,1.14-0.79,2.2-1.62,3.02
			c-0.83,0.83-1.88,1.39-3.02,1.62s-2.33,0.11-3.41-0.34c-1.08-0.45-2-1.2-2.65-2.17c-0.65-0.97-0.99-2.11-0.99-3.28
			c0-1.56,0.62-3.06,1.73-4.17C74.85,74.94,76.35,74.31,77.92,74.31z"/>
		<path class="st4" d="M121.83,115.03c0.9,0,1.79-0.28,2.53-0.8c0.74-0.52,1.3-1.26,1.61-2.11c0.31-0.85,0.34-1.78,0.1-2.65
			c-0.24-0.87-0.74-1.65-1.44-2.23c-0.7-0.57-1.56-0.92-2.46-0.99c-0.9-0.07-1.8,0.14-2.58,0.6c-0.78,0.46-1.39,1.15-1.76,1.98
			c-0.37,0.82-0.48,1.75-0.3,2.63l-5.8,2.78c-0.6-0.6-1.37-1.01-2.2-1.19c-0.83-0.17-1.7-0.1-2.49,0.21
			c-0.79,0.31-1.48,0.84-1.97,1.53c-0.5,0.69-0.78,1.51-0.82,2.36c-0.04,0.85,0.17,1.69,0.6,2.43c0.43,0.73,1.07,1.32,1.83,1.7
			c0.76,0.38,1.62,0.53,2.46,0.43c0.85-0.1,1.64-0.44,2.3-0.98l6.05,2.78c-0.14,1.03,0.1,2.08,0.66,2.96
			c0.57,0.88,1.43,1.53,2.42,1.83c1,0.3,2.07,0.24,3.03-0.18c0.96-0.42,1.73-1.16,2.19-2.1c0.46-0.94,0.57-2.01,0.31-3.02
			c-0.26-1.01-0.87-1.9-1.72-2.5c-0.85-0.6-1.89-0.88-2.93-0.79c-1.04,0.09-2.01,0.56-2.74,1.3l-5.8-2.66
			c0.12-0.53,0.15-1.08,0.07-1.62l5.92-2.84C119.7,114.62,120.74,115.03,121.83,115.03z M121.83,109.03c0.32,0,0.63,0.09,0.9,0.27
			c0.26,0.18,0.47,0.43,0.59,0.72s0.15,0.62,0.09,0.93c-0.06,0.31-0.22,0.6-0.44,0.82c-0.23,0.23-0.51,0.38-0.83,0.44
			c-0.31,0.06-0.64,0.03-0.93-0.09c-0.29-0.12-0.55-0.33-0.72-0.59c-0.18-0.26-0.27-0.58-0.27-0.9c0-0.43,0.17-0.84,0.47-1.14
			C120.99,109.2,121.4,109.03,121.83,109.03z M108.62,118.98c-0.32,0-0.63-0.1-0.9-0.27c-0.27-0.18-0.47-0.43-0.59-0.72
			c-0.12-0.29-0.15-0.62-0.09-0.93c0.06-0.31,0.22-0.6,0.44-0.83c0.23-0.23,0.51-0.38,0.83-0.44c0.31-0.06,0.64-0.03,0.93,0.09
			c0.3,0.12,0.55,0.33,0.72,0.59c0.18,0.26,0.27,0.58,0.27,0.9c0,0.43-0.17,0.84-0.47,1.14S109.05,118.98,108.62,118.98z
			 M121.83,122.48c0.32,0,0.63,0.1,0.9,0.27c0.26,0.18,0.47,0.43,0.59,0.72c0.12,0.29,0.15,0.62,0.09,0.93
			c-0.06,0.31-0.21,0.6-0.44,0.83c-0.23,0.23-0.51,0.38-0.83,0.44c-0.31,0.06-0.64,0.03-0.93-0.09c-0.29-0.12-0.55-0.33-0.72-0.59
			c-0.18-0.27-0.27-0.58-0.27-0.9c0-0.43,0.17-0.84,0.47-1.14C120.99,122.65,121.4,122.48,121.83,122.48z"/>
	</g>
</g>
<g id="Layer_4" class="st3">
	
		<linearGradient id="SVGID_00000098191951687464501880000015653803412540462000_" gradientUnits="userSpaceOnUse" x1="-139.7207" y1="334.8918" x2="-139.7207" y2="146.8918" gradientTransform="matrix(1 0 0 -1 234 335.1776)">
		<stop  offset="0" style="stop-color:#F35F4B"/>
		<stop  offset="1" style="stop-color:#F89D5C"/>
	</linearGradient>
	
		<circle style="display:inline;fill:url(#SVGID_00000098191951687464501880000015653803412540462000_);" cx="94.28" cy="94.29" r="94"/>
	<path class="st6" d="M94.28,9.29L94.28,9.29c46.94,0,85,38.06,85,85l0,0c0,46.94-38.06,85-85,85l0,0c-46.94,0-85-38.06-85-85l0,0
		C9.28,47.34,47.34,9.29,94.28,9.29z"/>
</g>
</svg>
